<svg width="435" height="432" viewBox="0 0 435 432" fill="none" xmlns="http://www.w3.org/2000/svg">
<g filter="url(#filter0_d_79_404)">
<path d="M84.0795 47.6596C84.0291 40.7783 84.0928 35.491 84.2708 31.7979L84.2367 31.7982L79.3439 31.1252C79.0415 30.2848 78.8068 29.3527 78.6398 28.3288C78.4728 27.3049 78.3857 26.3145 78.3787 25.3575C78.3734 24.6283 78.4245 23.8303 78.5321 22.9634C81.3273 21.9351 85.184 21.1592 90.1022 20.6356C95.0204 20.112 99.758 19.8293 104.315 19.7875C107.801 19.7556 110.8 20.0016 113.31 20.5255C115.82 21.0493 117.926 22.272 119.626 24.1933C121.349 26.0917 122.225 28.9549 122.253 32.7829C122.267 34.6969 121.873 36.9337 121.071 39.4932C120.292 42.0297 119.285 44.5114 118.05 46.9382C116.837 49.342 115.609 51.2901 114.367 52.7827C112.537 55.0098 110.496 56.3274 108.243 56.7355C104.511 57.3621 100.56 57.6946 96.3901 57.7328C96.3161 60.0806 96.2943 61.767 96.3246 62.7922L101.415 62.4037C102.475 64.1031 103.071 66.1257 103.202 68.4716C103.203 68.5855 102.694 69.0801 101.675 69.9554C100.656 70.8306 99.3063 71.6405 97.6255 72.3851C95.9675 73.1295 94.0562 73.5116 91.8916 73.5315C89.7497 73.5511 88.0365 72.9857 86.752 71.8353C85.4901 70.662 84.8486 68.6284 84.8274 65.7346C84.4052 60.9987 84.1674 54.985 84.114 47.6935L84.0795 47.6596ZM105.719 48.0424C106.293 45.5305 106.763 42.8715 107.13 40.0653C107.519 37.2361 107.729 34.7731 107.759 32.6764C107.644 32.4724 107.062 32.2954 106.012 32.1455C104.963 31.9956 103.607 31.9283 101.943 31.9435C100.781 31.9542 99.3346 32.013 97.6036 32.12C97.449 39.0032 97.2161 44.5313 96.9049 48.7043L105.719 48.0424ZM124.86 52.7207C124.831 48.7788 125.466 45.2523 126.765 42.1413C128.064 39.0303 130.085 36.5622 132.829 34.7368C135.595 32.8885 139.052 31.9453 143.199 31.9073C145.364 31.8875 147.53 32.1297 149.699 32.6339C151.867 33.1154 153.707 33.9416 155.22 35.1127C156.618 36.2165 157.631 37.6884 158.26 39.5284C158.911 41.3454 159.245 43.3704 159.262 45.6035C159.273 47.0845 159.158 48.6009 158.919 50.1527C158.649 50.6109 158.118 51.2196 157.326 51.9789C156.534 52.7153 155.605 53.4416 154.539 54.1578C153.473 54.874 152.441 55.4304 151.441 55.8269C150.484 55.904 149.494 55.9473 148.468 55.9567C146.668 55.9732 144.845 55.9101 142.998 55.7675C141.151 55.625 139.532 55.4575 138.141 55.2652C138.337 57.2003 138.942 58.881 139.955 60.3073C140.968 61.7336 142.568 62.4368 144.756 62.4167C144.961 62.4149 145.291 62.389 145.746 62.3393C147.135 62.1898 148.75 61.8105 150.592 61.2011C152.456 60.5688 154.307 59.8454 156.147 59.031C157.019 59.8889 157.664 60.7489 158.08 61.611C158.497 62.4731 158.791 63.7123 158.962 65.3287C158.262 66.1554 157.118 67.1686 155.532 68.368C153.969 69.5673 152.051 70.6559 149.779 71.6338C147.508 72.5889 145.13 73.0778 142.647 73.1006C138.91 73.1348 135.702 72.2641 133.023 70.4884C130.366 68.6898 128.343 66.2473 126.953 63.161C125.586 60.0516 124.888 56.5715 124.86 52.7207ZM146.813 44.6579C146.492 44.319 145.954 44.0619 145.201 43.8865C144.447 43.6883 143.661 43.593 142.84 43.6005C142.18 43.6066 141.508 43.6697 140.825 43.7899C140.165 43.9099 139.767 44.0389 139.632 44.1768C138.868 45.7106 138.391 47.4468 138.2 49.3855L147.319 48.4132L146.813 44.6579ZM166.633 53.3292C166.606 49.6151 166.638 46.2309 166.729 43.1765L162.999 42.5613C162.695 41.4247 162.482 40.424 162.362 39.5592C162.242 38.6944 162.178 37.7721 162.171 36.7923L162.234 36.1081C162.3 35.7884 162.332 35.5261 162.331 35.321L167.279 34.1819C167.382 32.7681 167.633 31.1707 168.03 29.3896C168.427 27.6086 168.85 26.2944 169.3 25.4472C170.025 24.8936 170.899 24.4755 171.922 24.1926C172.946 23.9098 174.05 23.763 175.235 23.7521C176.237 23.7429 177.206 23.8366 178.142 24.0331C179.1 24.2066 179.934 24.4496 180.643 24.7622C180.717 25.5363 180.757 26.4246 180.765 27.4272C180.777 29.0677 180.711 30.9255 180.566 33.0005L186.574 31.8517C187.427 33.3022 187.861 34.882 187.873 36.5909C187.882 37.7758 187.741 38.8481 187.452 39.8078C187.186 40.7673 186.806 41.8532 186.314 43.0654C184.812 43.3299 182.751 43.5082 180.131 43.6006C179.84 47.3176 179.173 52.7813 178.132 59.9917L177.97 61.1553L178.039 61.223L186.052 58.6544C187.726 60.0291 188.756 62.1617 189.141 65.0521C189.143 65.2116 188.408 65.9703 186.936 67.3283C185.488 68.6632 183.663 69.9105 181.461 71.07C179.259 72.2068 176.859 72.7871 174.261 72.8109C169.727 72.8524 167.292 70.1061 166.955 64.5718C166.775 61.7706 166.667 58.0231 166.633 53.3292ZM194.709 59.8739C196.72 60.6531 198.331 61.2536 199.542 61.6754C200.753 62.0973 202.077 62.4612 203.515 62.767C204.975 63.0726 206.423 63.2189 207.859 63.2057C208.497 63.1999 208.952 63.1387 209.225 63.0223C209.292 62.9305 209.348 62.7933 209.393 62.6106C209.459 62.4049 209.492 62.1995 209.491 61.9944C209.487 61.5387 209.222 61.1652 208.696 60.8738C207.873 60.4255 206.409 59.7212 204.306 58.7606C201.425 57.4197 199.137 56.2216 197.443 55.1661C195.772 54.1104 194.349 52.6992 193.174 50.9326C192.021 49.1657 191.435 46.9379 191.416 44.2492C191.387 40.3984 192.515 37.3004 194.8 34.9551C197.084 32.5871 200.721 31.3802 205.711 31.3345C211.658 31.28 216.289 32.0123 219.604 33.5315C219.769 34.1908 219.855 35.0218 219.862 36.0243C219.876 37.9383 219.594 39.9006 219.016 41.9112C218.438 43.899 217.675 45.3758 216.725 46.3416C215.423 45.9206 213.583 45.2424 211.207 44.3071C209.47 43.6394 208.088 43.128 207.06 42.7728C206.054 42.3946 205.129 42.1296 204.285 41.9779C203.83 42.096 203.468 42.3727 203.197 42.8082C202.927 43.2208 202.794 43.712 202.798 44.2816C202.802 44.7829 202.953 45.2031 203.252 45.5422C203.55 45.8812 203.883 46.1516 204.249 46.3534C204.637 46.5321 205.186 46.7777 205.895 47.0903C206.261 47.2464 206.603 47.3914 206.923 47.5252C207.243 47.6362 207.54 47.7474 207.815 47.8588C209.597 48.5945 211.003 49.1969 212.032 49.666C213.061 50.1351 214.056 50.6956 215.018 51.3477C216.781 52.5392 218.17 53.9051 219.184 55.4454C220.198 56.9856 220.712 58.6786 220.725 60.5243C220.744 63.0763 220.031 65.2932 218.586 67.175C217.164 69.0338 215.329 70.3951 213.079 71.2588C211.897 71.7026 210.601 72.0221 209.19 72.2173C207.801 72.4352 206.173 72.5526 204.304 72.5697C202.094 72.59 199.813 72.1893 197.459 71.3678C195.129 70.5232 193.341 69.104 192.096 67.1101C192.109 65.72 192.282 64.5106 192.616 63.4821C192.973 62.4306 193.671 61.2279 194.709 59.8739ZM224.315 60.6964C225.709 61.1394 226.976 61.4924 228.117 61.7554C230.262 52.8487 232.703 42.3327 235.44 30.2075L227.196 29.3944C226.662 27.9637 226.388 26.3369 226.374 24.514C226.364 23.1241 226.514 21.7668 226.823 20.4423C230.122 19.7741 233.924 19.2835 238.228 18.9706C242.556 18.6347 246.269 18.4526 249.367 18.4242C251.6 18.4037 253.275 18.3997 254.392 18.4123L256.554 19.623C260.459 30.0922 264.448 44.2636 268.521 62.1371C268.568 62.319 268.651 62.6828 268.769 63.2287C268.909 63.7743 269.016 64.2974 269.088 64.7981C269.16 65.2759 269.197 65.7313 269.2 66.1643C269.214 68.0783 268.542 69.634 267.184 70.8314C265.275 71.6009 262.965 71.998 260.254 72.0229C258.978 72.0346 257.69 71.9096 256.389 71.6481C255.088 71.3866 254.208 70.9731 253.748 70.4076L254.093 61.5857L253.205 57.0136C251.725 57.1183 249.982 57.1799 247.977 57.1982C245.835 57.2179 243.829 57.1679 241.96 57.0483L241.563 58.8977C240.704 62.8706 239.995 65.6913 239.438 67.3599C238.903 69.0283 238.092 70.2662 237.004 71.0738C235.939 71.8811 234.336 72.2945 232.194 72.3142C230.804 72.3269 229.401 72.1575 227.986 71.8058C226.571 71.477 225.291 71.0216 224.148 70.4396C223.004 69.8576 222.145 69.2274 221.57 68.5491C221.558 66.9085 221.797 65.3454 222.288 63.8597C222.778 62.374 223.454 61.3196 224.315 60.6964ZM248.054 30.3996L246.482 30.414L244.144 47.2867L251.8 47.2165L248.054 30.3996ZM271.825 41.9058C271.336 40.4292 271.007 39.1105 270.839 37.9499C270.694 36.7891 270.615 35.2858 270.601 33.4402C270.963 33.1178 271.553 32.7478 272.37 32.3302C273.187 31.8897 274.164 31.5048 275.301 31.1753C276.438 30.8459 277.611 30.6756 278.818 30.6646C281.575 30.6393 283.528 31.2139 284.676 32.3883C285.846 33.5625 286.441 35.3345 286.458 37.7042C286.468 39.0258 286.287 40.8163 285.916 43.0756C285.305 46.7044 285 48.6099 285.001 48.7922C285.002 48.9062 285.083 49.0194 285.243 49.1318C285.403 49.2215 285.574 49.2655 285.757 49.2638C285.962 49.262 286.098 49.181 286.165 49.0208L286.497 47.6506L287.227 44.7385C288.313 40.5129 289.951 37.0911 292.142 34.4733C294.333 31.8327 297.104 30.497 300.453 30.4663C302.959 30.4433 305.003 30.9715 306.583 32.0508C308.186 33.1071 309.347 34.5207 310.066 36.2915C310.786 38.0396 311.153 39.9731 311.168 42.0922C311.19 44.9632 310.94 48.1899 310.419 51.7723C309.898 55.3319 309.194 58.6654 308.305 61.7726C307.439 64.8112 305.975 67.2287 303.915 69.025C301.877 70.7983 299.32 71.6991 296.244 71.7272C295.127 71.7375 293.816 71.5672 292.309 71.2164C290.826 70.8882 288.942 70.3016 286.657 69.4566L285.337 75.9289L285.406 75.9967L291.931 75.4925C292.368 76.1038 292.692 76.8414 292.904 77.7054C293.138 78.5919 293.339 79.6041 293.507 80.7419L293.615 81.4246C293.615 81.5157 293.117 81.9419 292.12 82.703C291.123 83.4869 289.795 84.2055 288.137 84.8587C286.478 85.5347 284.567 85.8827 282.402 85.9025C277.503 85.9474 275.035 83.3609 274.996 78.1429L274.979 75.7846C274.928 68.8349 274.928 62.6481 274.98 57.2242C275.054 51.7774 275.246 46.8649 275.555 42.4869L271.825 41.9058ZM296.04 62.6028C296.838 59.5192 297.214 54.8557 297.168 48.6124C297.16 47.5414 297.097 46.6761 296.978 46.0164C296.449 45.3604 295.695 45.0369 294.715 45.0458C294.398 45.3222 293.318 47.1323 291.474 50.4762C289.629 53.7972 288.27 56.3505 287.394 58.1359L287.406 59.7765C288.666 60.6309 290.118 61.3354 291.762 61.89C293.407 62.4218 294.662 62.6838 295.528 62.6758C295.733 62.6739 295.904 62.6496 296.04 62.6028ZM314.548 41.5144C314.059 40.0377 313.73 38.719 313.562 37.5584C313.417 36.3976 313.337 34.8943 313.324 33.0487C313.686 32.7263 314.276 32.3563 315.093 31.9387C315.91 31.4982 316.887 31.1133 318.024 30.7838C319.161 30.4544 320.333 30.2841 321.541 30.2731C324.298 30.2478 326.251 30.8224 327.399 31.9968C328.569 33.171 329.163 34.943 329.181 37.3127C329.19 38.6343 329.01 40.4248 328.639 42.6841C328.028 46.3129 327.723 48.2185 327.724 48.4007C327.725 48.5147 327.805 48.6279 327.966 48.7403C328.126 48.83 328.297 48.874 328.479 48.8724C328.684 48.8705 328.821 48.7895 328.888 48.6293L329.22 47.2591L329.95 44.347C331.036 40.1214 332.674 36.6996 334.865 34.0818C337.056 31.4412 339.826 30.1055 343.176 30.0748C345.682 30.0518 347.726 30.58 349.306 31.6593C350.909 32.7157 352.07 34.1292 352.789 35.9C353.508 37.6481 353.876 39.5816 353.891 41.7007C353.912 44.5717 353.663 47.7984 353.142 51.3808C352.621 54.9404 351.916 58.2739 351.028 61.3811C350.161 64.4197 348.698 66.8372 346.637 68.6335C344.6 70.4068 342.043 71.3076 338.967 71.3358C337.85 71.346 336.539 71.1757 335.032 70.8249C333.549 70.4967 331.664 69.9101 329.379 69.0651L328.06 75.5374L328.129 75.6052L334.653 75.101C335.091 75.7123 335.415 76.4499 335.627 77.3139C335.861 78.2004 336.062 79.2126 336.23 80.3505L336.338 81.0331C336.338 81.1242 335.84 81.5504 334.843 82.3115C333.846 83.0954 332.518 83.814 330.86 84.4672C329.201 85.1432 327.29 85.4912 325.125 85.511C320.226 85.5559 317.758 82.9694 317.719 77.7514L317.702 75.3931C317.651 68.4434 317.651 62.2566 317.703 56.8328C317.777 51.3859 317.968 46.4735 318.278 42.0954L314.548 41.5144ZM338.763 62.2113C339.561 59.1277 339.937 54.4642 339.891 48.2209C339.883 47.1499 339.82 46.2846 339.701 45.6249C339.172 44.9689 338.418 44.6454 337.438 44.6543C337.121 44.9307 336.04 46.7408 334.196 50.0847C332.352 53.4057 330.992 55.959 330.117 57.7444L330.129 59.385C331.388 60.2394 332.84 60.9439 334.485 61.4985C336.13 62.0303 337.385 62.2923 338.251 62.2843C338.456 62.2825 338.627 62.2581 338.763 62.2113Z" fill="black"/>
<path d="M351.105 318.904C351.735 318.897 352.356 318.767 352.921 318.523C353.486 318.279 353.983 317.927 354.374 317.493C354.765 317.06 355.04 316.555 355.181 316.015C355.321 315.476 355.322 314.916 355.185 314.376L336.788 246.793C334.179 237.14 330.033 227.857 324.472 219.22C331.4 163.261 315.005 122.644 297.609 120.008C282.214 117.778 253.118 153.191 242.649 166.64C226.232 163.577 209.265 163.577 192.847 166.64C182.379 153.124 152.975 117.778 137.965 120.008C120.569 122.644 104.097 163.261 111.024 219.22C105.489 227.86 101.368 237.143 98.7857 246.793L80.389 314.376C80.2515 314.916 80.2529 315.476 80.3933 316.015C80.5336 316.555 80.8093 317.06 81.2002 317.493C81.5911 317.927 82.0873 318.279 82.6528 318.523C83.2182 318.767 83.8386 318.897 84.4686 318.904H100.787C101.424 318.901 102.053 319.024 102.628 319.263C103.203 319.503 103.709 319.853 104.108 320.289C104.508 320.724 104.79 321.232 104.935 321.777C105.079 322.321 105.082 322.887 104.944 323.432L101.788 335.192C101.63 335.816 101.659 336.465 101.87 337.076C102.082 337.687 102.47 338.241 102.996 338.682C103.522 339.124 104.169 339.439 104.874 339.597C105.579 339.755 106.319 339.751 107.022 339.585L131.576 333.57C135.305 332.598 139.313 332.901 142.798 334.418C146.282 335.935 148.983 338.553 150.358 341.747C164.752 373.511 182.918 392.907 217.787 392.907C252.656 392.907 270.745 373.511 285.216 341.747C286.59 338.568 289.279 335.961 292.746 334.446C296.213 332.93 300.203 332.617 303.92 333.57L328.552 339.585C329.252 339.757 329.992 339.765 330.697 339.608C331.402 339.451 332.047 339.135 332.569 338.69C333.091 338.246 333.471 337.688 333.671 337.075C333.871 336.461 333.884 335.811 333.709 335.192L330.63 323.703C330.493 323.163 330.494 322.603 330.635 322.063C330.775 321.524 331.051 321.019 331.441 320.585C331.832 320.151 332.329 319.8 332.894 319.556C333.459 319.311 334.08 319.181 334.71 319.175L351.105 318.904Z" fill="#FFAA54"/>
<path d="M139.328 144.76C152.123 142.727 175.351 169.577 188.222 185.982C189.829 188.053 192.017 189.681 194.553 190.694C197.089 191.707 199.876 192.065 202.616 191.731C207.814 191.059 213.055 190.708 218.305 190.68C223.554 190.713 228.794 191.065 233.993 191.731C236.721 192.052 239.493 191.687 242.014 190.675C244.534 189.663 246.711 188.041 248.311 185.982C261.258 169.577 284.486 142.727 297.281 144.76C310.075 146.793 322.87 171.611 324.926 208.907C327.82 158.29 312.817 122.606 297.052 120.152C281.288 117.698 253.261 154.364 242.904 168.386C226.66 165.207 209.873 165.207 193.629 168.386C183.272 154.364 154.179 117.698 139.328 120.012C124.477 122.325 108.56 158.29 111.683 208.907C113.663 171.611 126.229 146.793 139.328 144.76Z" fill="#FFCC99"/>
<path d="M351.105 318.904C351.735 318.897 352.356 318.767 352.921 318.523C353.486 318.279 353.983 317.927 354.374 317.493C354.765 317.06 355.04 316.555 355.181 316.015C355.321 315.476 355.322 314.916 355.185 314.376L336.788 246.793C334.179 237.14 330.033 227.857 324.472 219.22C331.4 163.261 315.005 122.644 297.609 120.008C282.214 117.778 253.118 153.191 242.649 166.64C226.232 163.577 209.265 163.577 192.847 166.64C182.379 153.124 152.975 117.778 137.965 120.008C120.569 122.644 104.097 163.261 111.024 219.22C105.489 227.86 101.368 237.143 98.7857 246.793L80.389 314.376C80.2515 314.916 80.2529 315.476 80.3933 316.015C80.5336 316.555 80.8093 317.06 81.2002 317.493C81.5911 317.927 82.0873 318.279 82.6528 318.523C83.2182 318.767 83.8386 318.897 84.4686 318.904H100.787C101.424 318.901 102.053 319.024 102.628 319.263C103.203 319.503 103.709 319.853 104.108 320.289C104.508 320.724 104.79 321.232 104.935 321.777C105.079 322.321 105.082 322.887 104.944 323.432L101.788 335.192C101.63 335.816 101.659 336.465 101.87 337.076C102.082 337.687 102.47 338.241 102.996 338.682C103.522 339.124 104.169 339.439 104.874 339.597C105.579 339.755 106.319 339.751 107.022 339.585L131.576 333.57C135.305 332.598 139.313 332.901 142.798 334.418C146.282 335.935 148.983 338.553 150.358 341.747C164.752 373.511 182.918 392.907 217.787 392.907C252.656 392.907 270.745 373.511 285.216 341.747C286.59 338.568 289.279 335.961 292.746 334.446C296.213 332.93 300.203 332.617 303.92 333.57L328.552 339.585C329.252 339.757 329.992 339.765 330.697 339.608C331.402 339.451 332.047 339.135 332.569 338.69C333.091 338.246 333.471 337.688 333.671 337.075C333.871 336.461 333.884 335.811 333.709 335.192L330.63 323.703C330.493 323.163 330.494 322.603 330.635 322.063C330.775 321.524 331.051 321.019 331.441 320.585C331.832 320.151 332.329 319.8 332.894 319.556C333.459 319.311 334.08 319.181 334.71 319.175L351.105 318.904Z" stroke="#45413C" stroke-linecap="round" stroke-linejoin="round"/>
<path d="M210.567 323.927C210.567 323.927 172.061 294.516 129.55 285.885C115.71 282.424 100.87 283.541 87.9359 289.018C75.0016 294.495 64.9049 303.937 59.6232 315.495C59.3753 315.967 59.2616 316.483 59.2916 317C59.3217 317.518 59.4945 318.021 59.7958 318.469C60.0971 318.918 60.5182 319.297 61.0239 319.577C61.5297 319.856 62.1056 320.027 62.7037 320.076C71.4074 320.67 79.9399 322.487 87.9636 325.454C89.5255 326.053 90.8122 327.082 91.6209 328.38C92.4296 329.678 92.7143 331.171 92.4303 332.624C90.7369 341.416 90.7369 350.389 92.4303 359.181C92.5174 359.697 92.7566 360.186 93.125 360.6C93.4935 361.014 93.979 361.34 94.5351 361.547C95.0912 361.753 95.6994 361.833 96.3016 361.779C96.9039 361.725 97.4801 361.539 97.9752 361.239C109.013 354.565 121.131 349.33 133.94 345.703C137.488 344.724 141.324 344.852 144.774 346.066C148.224 347.28 151.068 349.502 152.808 352.342C162.973 367.679 185.846 392.907 218.268 392.907C250.69 392.907 273.563 367.679 283.651 352.342C285.405 349.497 288.263 347.272 291.726 346.059C295.189 344.845 299.036 344.72 302.596 345.703C315.38 349.331 327.473 354.566 338.484 361.239C338.985 361.536 339.566 361.72 340.172 361.773C340.778 361.825 341.389 361.745 341.95 361.54C342.51 361.335 343.002 361.011 343.379 360.599C343.755 360.186 344.005 359.699 344.106 359.181C345.845 350.392 345.845 341.413 344.106 332.624C343.821 331.171 344.106 329.678 344.915 328.38C345.724 327.082 347.01 326.053 348.572 325.454C356.599 322.496 365.13 320.679 373.832 320.076C374.43 320.023 375.004 319.85 375.51 319.571C376.016 319.292 376.44 318.915 376.747 318.47C377.053 318.025 377.235 317.524 377.277 317.008C377.32 316.491 377.221 315.973 376.99 315.495C371.693 303.932 361.581 294.488 348.634 289.012C335.687 283.535 320.836 282.42 306.986 285.885C264.475 294.516 225.969 323.927 225.969 323.927H210.567Z" fill="#F0F0F0"/>
<path d="M62.485 319.292L66.7205 319.812C73.5946 311.643 83.3303 305.496 94.5599 302.234C105.789 298.972 117.948 298.759 129.329 301.625C172.069 310.134 210.573 338.907 210.573 338.907H225.975C225.975 338.907 264.48 310.134 306.988 301.625C318.369 298.759 330.528 298.972 341.757 302.234C352.987 305.496 362.723 311.643 369.597 319.812L373.832 319.292C374.43 319.24 375.004 319.071 375.51 318.798C376.017 318.525 376.44 318.156 376.747 317.721C377.053 317.285 377.235 316.795 377.277 316.29C377.32 315.785 377.221 315.278 376.99 314.81C371.693 303.498 361.582 294.259 348.636 288.901C335.689 283.543 320.838 282.453 306.988 285.842C264.48 294.286 225.975 323.059 225.975 323.059H210.573C210.573 323.059 172.069 294.286 129.56 285.842C115.721 282.456 100.881 283.549 87.9472 288.907C75.0134 294.265 64.9171 303.503 59.6356 314.81C59.3902 315.258 59.2713 315.748 59.2886 316.24C59.3058 316.733 59.4586 317.216 59.7349 317.651C60.0112 318.085 60.4034 318.46 60.8807 318.745C61.3579 319.029 61.9071 319.217 62.485 319.292Z" fill="white"/>
<path d="M210.567 323.927C210.567 323.927 172.061 294.516 129.55 285.885C115.71 282.424 100.87 283.541 87.9359 289.018C75.0016 294.495 64.9049 303.937 59.6232 315.495C59.3753 315.967 59.2616 316.483 59.2916 317C59.3217 317.518 59.4945 318.021 59.7958 318.469C60.0971 318.918 60.5182 319.297 61.0239 319.577C61.5297 319.856 62.1056 320.027 62.7037 320.076C71.4074 320.67 79.9399 322.487 87.9636 325.454C89.5255 326.053 90.8122 327.082 91.6209 328.38C92.4296 329.678 92.7143 331.171 92.4303 332.624C90.7369 341.416 90.7369 350.389 92.4303 359.181C92.5174 359.697 92.7566 360.186 93.125 360.6C93.4935 361.014 93.979 361.34 94.5351 361.547C95.0912 361.753 95.6994 361.833 96.3016 361.779C96.9039 361.725 97.4801 361.539 97.9752 361.239C109.013 354.565 121.131 349.33 133.94 345.703C137.488 344.724 141.324 344.852 144.774 346.066C148.224 347.28 151.068 349.502 152.808 352.342C162.973 367.679 185.846 392.907 218.268 392.907C250.69 392.907 273.563 367.679 283.651 352.342C285.405 349.497 288.263 347.272 291.726 346.059C295.189 344.845 299.036 344.72 302.596 345.703C315.38 349.331 327.473 354.566 338.484 361.239C338.985 361.536 339.566 361.72 340.172 361.773C340.778 361.825 341.389 361.745 341.95 361.54C342.51 361.335 343.002 361.011 343.379 360.599C343.755 360.186 344.005 359.699 344.106 359.181C345.845 350.392 345.845 341.413 344.106 332.624C343.821 331.171 344.106 329.678 344.915 328.38C345.724 327.082 347.01 326.053 348.572 325.454C356.599 322.496 365.13 320.679 373.832 320.076C374.43 320.023 375.004 319.85 375.51 319.571C376.016 319.292 376.44 318.915 376.747 318.47C377.053 318.025 377.235 317.524 377.277 317.008C377.32 316.491 377.221 315.973 376.99 315.495C371.693 303.932 361.581 294.488 348.634 289.012C335.687 283.535 320.836 282.42 306.986 285.885C264.475 294.516 225.969 323.927 225.969 323.927H210.567Z" stroke="#45413C" stroke-linecap="round" stroke-linejoin="round"/>
<path opacity="0.15" d="M129.287 413.907C129.287 416.559 138.664 419.103 155.354 420.978C172.045 422.854 194.683 423.907 218.287 423.907C241.891 423.907 264.529 422.854 281.219 420.978C297.91 419.103 307.287 416.559 307.287 413.907C307.287 411.255 297.91 408.712 281.219 406.836C264.529 404.961 241.891 403.907 218.287 403.907C194.683 403.907 172.045 404.961 155.354 406.836C138.664 408.712 129.287 411.255 129.287 413.907Z" fill="#45413C"/>
<path d="M263.628 268.407C263.628 270.662 264.716 272.824 266.653 274.418C268.59 276.012 271.218 276.907 273.957 276.907C276.697 276.907 279.324 276.012 281.261 274.418C283.199 272.824 284.287 270.662 284.287 268.407C284.287 266.153 283.199 263.991 281.261 262.397C279.324 260.803 276.697 259.907 273.957 259.907C271.218 259.907 268.59 260.803 266.653 262.397C264.716 263.991 263.628 266.153 263.628 268.407ZM154.287 268.407C154.287 270.662 155.375 272.824 157.312 274.418C159.25 276.012 161.877 276.907 164.617 276.907C167.356 276.907 169.983 276.012 171.921 274.418C173.858 272.824 174.946 270.662 174.946 268.407C174.946 266.153 173.858 263.991 171.921 262.397C169.983 260.803 167.356 259.907 164.617 259.907C161.877 259.907 159.25 260.803 157.312 262.397C155.375 263.991 154.287 266.153 154.287 268.407Z" fill="#45413C" stroke="#45413C" stroke-linecap="round" stroke-linejoin="round"/>
<path d="M317.287 314.407C317.287 318.532 312.133 321.907 305.748 321.907C299.364 321.907 294.21 318.532 294.21 314.407C294.21 310.282 299.364 306.907 305.748 306.907C312.133 306.907 317.287 310.282 317.287 314.407ZM140.364 314.407C140.364 318.532 135.21 321.907 128.825 321.907C122.441 321.907 117.287 318.532 117.287 314.407C117.287 310.282 122.441 306.907 128.825 306.907C135.21 306.907 140.364 310.282 140.364 314.407Z" fill="#FFCCDD"/>
<path d="M190.287 365.124C191.897 367.365 194.168 369.176 196.854 370.363C199.541 371.551 202.542 372.069 205.537 371.863C216.974 371.863 220.787 363.035 220.787 344.907C220.787 363.035 224.599 371.863 236.037 371.863C239.032 372.069 242.033 371.551 244.72 370.363C247.406 369.176 249.676 367.365 251.287 365.124" stroke="#45413C" stroke-linecap="round" stroke-linejoin="round"/>
<path d="M241.287 330.876C240.888 335.743 238.455 340.331 234.424 343.818C230.393 347.305 225.027 349.464 219.287 349.907C213.611 349.475 208.295 347.365 204.273 343.948C200.25 340.531 197.777 336.024 197.287 331.218C197.287 323.482 207.155 321.907 219.287 321.907C231.419 321.907 241.287 323.14 241.287 330.876Z" fill="#656769"/>
<path d="M219.247 332.307C228.45 332.307 236.281 333.241 239.592 336.907C240.668 335.054 241.246 333.03 241.287 330.974C241.287 323.441 231.437 321.907 219.247 321.907C207.056 321.907 197.287 323.441 197.287 330.974C197.336 333.021 197.885 335.04 198.902 336.907C202.131 333.241 210.043 332.307 219.247 332.307Z" fill="#87898C"/>
<path d="M241.287 330.876C240.888 335.743 238.455 340.331 234.424 343.818C230.393 347.305 225.027 349.464 219.287 349.907C213.611 349.475 208.295 347.365 204.273 343.948C200.25 340.531 197.777 336.024 197.287 331.218C197.287 323.482 207.155 321.907 219.287 321.907C231.419 321.907 241.287 323.14 241.287 330.876Z" stroke="#45413C" stroke-linecap="round" stroke-linejoin="round"/>
<path d="M170.984 182.103C171.464 181.93 171.898 181.666 172.257 181.328C172.617 180.991 172.893 180.587 173.069 180.145C173.245 179.703 173.315 179.231 173.277 178.762C173.238 178.293 173.09 177.837 172.843 177.424C167.639 168.54 153.883 147.111 145.184 146.907C135.37 146.907 128.604 180.068 132.322 206.041C132.437 206.716 132.774 207.343 133.287 207.84C133.8 208.337 134.465 208.682 135.196 208.828C135.928 208.975 136.69 208.917 137.384 208.661C138.079 208.406 138.672 207.966 139.088 207.397C146.75 196.279 157.848 187.478 170.984 182.103Z" fill="#FFA694"/>
<path d="M145.138 161.703C151.542 161.703 160.777 173.262 167.48 182.641C168.621 182.108 169.789 181.623 170.98 181.188C171.461 181.019 171.896 180.762 172.256 180.433C172.615 180.104 172.893 179.712 173.069 179.281C173.245 178.85 173.316 178.391 173.277 177.934C173.238 177.477 173.09 177.033 172.842 176.63C167.629 167.978 153.851 147.107 145.138 146.908C136.424 146.71 130.242 173.328 131.434 196.907C132.626 178.149 138.137 161.373 145.138 161.703Z" fill="#FF866E"/>
<path d="M170.984 182.103C171.464 181.93 171.898 181.666 172.257 181.328C172.617 180.991 172.893 180.587 173.069 180.145C173.245 179.703 173.315 179.231 173.277 178.762C173.238 178.293 173.09 177.837 172.843 177.424C167.639 168.54 153.883 147.111 145.184 146.907C135.37 146.907 128.604 180.068 132.322 206.041C132.437 206.716 132.774 207.343 133.287 207.84C133.8 208.337 134.465 208.682 135.196 208.828C135.928 208.975 136.69 208.917 137.384 208.661C138.079 208.406 138.672 207.966 139.088 207.397C146.75 196.279 157.848 187.478 170.984 182.103Z" stroke="#45413C" stroke-linecap="round" stroke-linejoin="round"/>
<path d="M264.821 181.984C264.3 181.818 263.827 181.559 263.433 181.224C263.039 180.89 262.734 180.487 262.538 180.044C262.342 179.601 262.259 179.127 262.295 178.654C262.332 178.181 262.486 177.721 262.749 177.303C268.328 168.619 283.074 147.112 292.48 146.908C301.885 146.705 310.254 180.085 306.269 206.07C306.125 206.741 305.75 207.362 305.192 207.853C304.634 208.344 303.918 208.683 303.134 208.828C302.35 208.973 301.533 208.918 300.786 208.668C300.039 208.419 299.395 207.987 298.936 207.426C290.771 196.26 278.899 187.406 264.821 181.984Z" fill="#FFA694"/>
<path d="M292.442 161.571C285.578 161.571 275.76 173.13 268.497 182.509L264.825 181.056C264.303 180.894 263.829 180.641 263.435 180.316C263.04 179.99 262.735 179.598 262.538 179.166C262.342 178.735 262.259 178.274 262.295 177.813C262.332 177.353 262.487 176.905 262.75 176.498C268.337 168.044 283.104 147.107 292.442 146.908C301.781 146.71 308.406 173.328 307.129 196.907C305.852 178.017 300.025 161.241 292.442 161.571Z" fill="#FF866E"/>
<path d="M264.821 181.984C264.3 181.818 263.827 181.559 263.433 181.224C263.039 180.89 262.734 180.487 262.538 180.044C262.342 179.601 262.259 179.127 262.295 178.654C262.332 178.181 262.486 177.721 262.749 177.303C268.328 168.619 283.074 147.112 292.48 146.908C301.885 146.705 310.254 180.085 306.269 206.07C306.125 206.741 305.75 207.362 305.192 207.853C304.634 208.344 303.918 208.683 303.134 208.828C302.35 208.973 301.533 208.918 300.786 208.668C300.039 208.419 299.395 207.987 298.936 207.426C290.771 196.26 278.899 187.406 264.821 181.984Z" stroke="#45413C" stroke-linecap="round" stroke-linejoin="round"/>
</g>
<defs>
<filter id="filter0_d_79_404" x="-86" y="3.05176e-05" width="607.379" height="433.75" filterUnits="userSpaceOnUse" color-interpolation-filters="sRGB">
<feFlood flood-opacity="0" result="BackgroundImageFix"/>
<feColorMatrix in="SourceAlpha" type="matrix" values="0 0 0 0 0 0 0 0 0 0 0 0 0 0 0 0 0 0 127 0" result="hardAlpha"/>
<feOffset dy="4"/>
<feGaussianBlur stdDeviation="2"/>
<feComposite in2="hardAlpha" operator="out"/>
<feColorMatrix type="matrix" values="0 0 0 0 0 0 0 0 0 0 0 0 0 0 0 0 0 0 0.25 0"/>
<feBlend mode="normal" in2="BackgroundImageFix" result="effect1_dropShadow_79_404"/>
<feBlend mode="normal" in="SourceGraphic" in2="effect1_dropShadow_79_404" result="shape"/>
</filter>
</defs>
</svg>
