<svg width="320" height="307" viewBox="0 0 320 307" fill="none" xmlns="http://www.w3.org/2000/svg">
<path d="M293.117 200.406C293.747 200.399 294.367 200.269 294.932 200.025C295.498 199.781 295.994 199.429 296.385 198.995C296.776 198.562 297.052 198.057 297.192 197.517C297.332 196.978 297.334 196.418 297.196 195.878L278.8 128.295C276.191 118.642 272.045 109.359 266.484 100.722C273.411 44.7631 257.016 4.14589 239.62 1.51016C224.225 -0.720072 195.129 34.6933 184.661 48.1423C168.244 45.0785 151.276 45.0785 134.859 48.1423C124.39 34.6257 94.9865 -0.720072 79.9767 1.51016C62.5806 4.14589 46.1083 44.7631 53.0359 100.722C47.5001 109.362 43.3799 118.645 40.7971 128.295L22.4004 195.878C22.2629 196.418 22.2643 196.978 22.4047 197.517C22.545 198.057 22.8207 198.562 23.2116 198.995C23.6025 199.429 24.0988 199.781 24.6642 200.025C25.2296 200.269 25.85 200.399 26.48 200.406H42.7984C43.4349 200.403 44.0641 200.526 44.6391 200.765C45.2142 201.005 45.7202 201.355 46.1197 201.791C46.5191 202.226 46.8017 202.734 46.9463 203.279C47.0909 203.823 47.0939 204.389 46.955 204.934L43.7991 216.694C43.6417 217.318 43.6702 217.967 43.8818 218.578C44.0934 219.189 44.481 219.743 45.0072 220.184C45.5333 220.626 46.1802 220.941 46.8855 221.099C47.5907 221.257 48.3305 221.253 49.0333 221.086L73.5879 215.072C77.316 214.1 81.3249 214.403 84.809 215.92C88.2931 217.437 90.9941 220.055 92.3694 223.249C106.763 255.013 124.929 274.409 159.798 274.409C194.667 274.409 212.756 255.013 227.227 223.249C228.602 220.07 231.291 217.463 234.757 215.948C238.224 214.432 242.214 214.119 245.932 215.072L270.563 221.086C271.264 221.259 272.003 221.267 272.708 221.11C273.413 220.953 274.059 220.637 274.581 220.192C275.103 219.747 275.483 219.19 275.683 218.576C275.883 217.963 275.896 217.313 275.721 216.694L272.642 205.205C272.504 204.665 272.506 204.105 272.646 203.565C272.786 203.026 273.062 202.521 273.453 202.087C273.844 201.653 274.34 201.302 274.905 201.057C275.471 200.813 276.091 200.683 276.721 200.676L293.117 200.406Z" fill="#FFAA54"/>
<path d="M81.3398 26.2616C94.1344 24.2285 117.363 51.0794 130.233 67.4844C131.84 69.5546 134.029 71.1834 136.564 72.1961C139.1 73.2088 141.887 73.5673 144.627 73.2331C149.826 72.5614 155.067 72.2101 160.316 72.1815C165.565 72.2153 170.806 72.5666 176.005 73.2331C178.733 73.554 181.504 73.189 184.025 72.1769C186.546 71.1647 188.722 69.5432 190.322 67.4844C203.269 51.0794 226.498 24.2285 239.292 26.2616C252.087 28.2947 264.881 53.1125 266.938 90.4093C269.832 39.7922 254.829 4.10786 239.064 1.65412C223.299 -0.799611 195.273 35.8662 184.915 49.8876C168.672 46.7094 151.884 46.7094 135.641 49.8876C125.283 35.8662 96.1907 -0.799611 81.3398 1.51391C66.4889 3.82743 50.5718 39.7922 53.6943 90.4093C55.6744 53.1125 68.2405 28.2947 81.3398 26.2616Z" fill="#FFCC99"/>
<path d="M293.117 200.406C293.747 200.399 294.367 200.269 294.932 200.025C295.498 199.781 295.994 199.429 296.385 198.995C296.776 198.562 297.052 198.057 297.192 197.517C297.332 196.978 297.334 196.418 297.196 195.878L278.8 128.295C276.191 118.642 272.045 109.359 266.484 100.722C273.411 44.7631 257.016 4.14589 239.62 1.51016C224.225 -0.720072 195.129 34.6933 184.661 48.1423C168.244 45.0785 151.276 45.0785 134.859 48.1423C124.39 34.6257 94.9865 -0.720072 79.9767 1.51016C62.5806 4.14589 46.1083 44.7631 53.0359 100.722C47.5001 109.362 43.3799 118.645 40.7971 128.295L22.4004 195.878C22.2629 196.418 22.2643 196.978 22.4047 197.517C22.545 198.057 22.8207 198.562 23.2116 198.995C23.6025 199.429 24.0988 199.781 24.6642 200.025C25.2296 200.269 25.85 200.399 26.48 200.406H42.7984C43.4349 200.403 44.0641 200.526 44.6391 200.765C45.2142 201.005 45.7202 201.355 46.1197 201.791C46.5191 202.226 46.8017 202.734 46.9463 203.279C47.0909 203.823 47.0939 204.389 46.955 204.934L43.7991 216.694C43.6417 217.318 43.6702 217.967 43.8818 218.578C44.0934 219.189 44.481 219.743 45.0072 220.184C45.5333 220.626 46.1802 220.941 46.8855 221.099C47.5907 221.257 48.3305 221.253 49.0333 221.086L73.5879 215.072C77.316 214.1 81.3249 214.403 84.809 215.92C88.2931 217.437 90.9941 220.055 92.3694 223.249C106.763 255.013 124.929 274.409 159.798 274.409C194.667 274.409 212.756 255.013 227.227 223.249C228.602 220.07 231.291 217.463 234.757 215.948C238.224 214.432 242.214 214.119 245.932 215.072L270.563 221.086C271.264 221.259 272.003 221.267 272.708 221.11C273.413 220.953 274.059 220.637 274.581 220.192C275.103 219.747 275.483 219.19 275.683 218.576C275.883 217.963 275.896 217.313 275.721 216.694L272.642 205.205C272.504 204.665 272.506 204.105 272.646 203.565C272.786 203.026 273.062 202.521 273.453 202.087C273.844 201.653 274.34 201.302 274.905 201.057C275.471 200.813 276.091 200.683 276.721 200.676L293.117 200.406Z" stroke="#45413C" stroke-linecap="round" stroke-linejoin="round"/>
<path d="M152.578 205.429C152.578 205.429 114.072 176.018 71.5615 167.387C57.7218 163.926 42.8816 165.043 29.9473 170.52C17.013 175.997 6.91629 185.439 1.6346 196.997C1.38669 197.469 1.27303 197.985 1.30306 198.502C1.33309 199.02 1.50594 199.523 1.80725 199.971C2.10855 200.419 2.5296 200.799 3.03536 201.079C3.54113 201.358 4.117 201.529 4.71508 201.578C13.4188 202.172 21.9513 203.989 29.975 206.956C31.537 207.554 32.8236 208.584 33.6323 209.882C34.441 211.18 34.7257 212.673 34.4417 214.126C32.7483 222.918 32.7483 231.891 34.4417 240.683C34.5288 241.199 34.768 241.688 35.1364 242.102C35.5049 242.516 35.9904 242.842 36.5465 243.049C37.1026 243.255 37.7108 243.335 38.3131 243.281C38.9153 243.227 39.4915 243.041 39.9866 242.741C51.024 236.067 63.1425 230.832 75.9512 227.205C79.4998 226.226 83.3353 226.354 86.7852 227.568C90.2351 228.782 93.0793 231.004 94.8191 233.844C104.985 249.181 127.857 274.409 160.279 274.409C192.701 274.409 215.574 249.181 225.663 233.844C227.416 230.999 230.274 228.774 233.737 227.561C237.2 226.347 241.048 226.221 244.607 227.205C257.391 230.833 269.484 236.068 280.495 242.741C280.997 243.038 281.577 243.222 282.183 243.275C282.789 243.327 283.401 243.247 283.961 243.042C284.522 242.837 285.013 242.513 285.39 242.101C285.767 241.688 286.017 241.201 286.117 240.683C287.857 231.894 287.857 222.915 286.117 214.126C285.833 212.673 286.118 211.18 286.926 209.882C287.735 208.584 289.022 207.554 290.584 206.956C298.611 203.998 307.142 202.181 315.844 201.578C316.441 201.525 317.016 201.352 317.522 201.073C318.028 200.794 318.451 200.417 318.758 199.972C319.065 199.527 319.247 199.026 319.289 198.51C319.331 197.993 319.232 197.475 319.001 196.997C313.704 185.434 303.593 175.99 290.646 170.514C277.699 165.037 262.847 163.922 248.997 167.387C206.487 176.018 167.981 205.429 167.981 205.429H152.578Z" fill="#F0F0F0"/>
<path d="M4.49638 200.794L8.73187 201.314C15.606 193.145 25.3418 186.998 36.5713 183.736C47.8009 180.474 59.9599 180.261 71.3402 183.127C114.08 191.636 152.585 220.409 152.585 220.409H167.986C167.986 220.409 206.491 191.636 249 183.127C260.38 180.261 272.539 180.474 283.769 183.736C294.998 186.998 304.734 193.145 311.608 201.314L315.844 200.794C316.441 200.742 317.016 200.573 317.522 200.3C318.028 200.027 318.451 199.658 318.758 199.223C319.065 198.787 319.247 198.297 319.289 197.792C319.331 197.286 319.232 196.78 319.001 196.312C313.704 185 303.594 175.761 290.647 170.403C277.7 165.045 262.85 163.955 249 167.344C206.491 175.788 167.986 204.561 167.986 204.561H152.585C152.585 204.561 114.08 175.788 71.5712 167.344C57.7321 163.958 42.8925 165.051 29.9587 170.409C17.0248 175.767 6.92853 185.005 1.64705 196.312C1.40157 196.76 1.28276 197.249 1.29998 197.742C1.3172 198.235 1.46999 198.718 1.74629 199.153C2.02258 199.587 2.41483 199.962 2.89209 200.247C3.36935 200.531 3.91855 200.719 4.49638 200.794Z" fill="white"/>
<path d="M152.578 205.429C152.578 205.429 114.072 176.018 71.5615 167.387C57.7218 163.926 42.8816 165.043 29.9473 170.52C17.013 175.997 6.91629 185.439 1.6346 196.997C1.38669 197.469 1.27303 197.985 1.30306 198.502C1.33309 199.02 1.50594 199.523 1.80725 199.971C2.10855 200.419 2.5296 200.799 3.03536 201.079C3.54113 201.358 4.117 201.529 4.71508 201.578C13.4188 202.172 21.9513 203.989 29.975 206.956C31.537 207.554 32.8236 208.584 33.6323 209.882C34.441 211.18 34.7257 212.673 34.4417 214.126C32.7483 222.918 32.7483 231.891 34.4417 240.683C34.5288 241.199 34.768 241.688 35.1364 242.102C35.5049 242.516 35.9904 242.842 36.5465 243.049C37.1026 243.255 37.7108 243.335 38.3131 243.281C38.9153 243.227 39.4915 243.041 39.9866 242.741C51.024 236.067 63.1425 230.832 75.9512 227.205C79.4998 226.226 83.3353 226.354 86.7852 227.568C90.2351 228.782 93.0793 231.004 94.8191 233.844C104.985 249.181 127.857 274.409 160.279 274.409C192.701 274.409 215.574 249.181 225.663 233.844C227.416 230.999 230.274 228.774 233.737 227.561C237.2 226.347 241.048 226.221 244.607 227.205C257.391 230.833 269.484 236.068 280.495 242.741C280.997 243.038 281.577 243.222 282.183 243.275C282.789 243.327 283.401 243.247 283.961 243.042C284.522 242.837 285.013 242.513 285.39 242.101C285.767 241.688 286.017 241.201 286.117 240.683C287.857 231.894 287.857 222.915 286.117 214.126C285.833 212.673 286.118 211.18 286.926 209.882C287.735 208.584 289.022 207.554 290.584 206.956C298.611 203.998 307.142 202.181 315.844 201.578C316.441 201.525 317.016 201.352 317.522 201.073C318.028 200.794 318.451 200.417 318.758 199.972C319.065 199.527 319.247 199.026 319.289 198.51C319.331 197.993 319.232 197.475 319.001 196.997C313.704 185.434 303.593 175.99 290.646 170.514C277.699 165.037 262.847 163.922 248.997 167.387C206.487 176.018 167.981 205.429 167.981 205.429H152.578Z" stroke="#45413C" stroke-linecap="round" stroke-linejoin="round"/>
<path opacity="0.15" d="M71.2983 295.409C71.2983 298.061 80.6751 300.605 97.3658 302.48C114.057 304.356 136.694 305.409 160.298 305.409C183.903 305.409 206.54 304.356 223.231 302.48C239.922 300.605 249.298 298.061 249.298 295.409C249.298 292.757 239.922 290.214 223.231 288.338C206.54 286.463 183.903 285.409 160.298 285.409C136.694 285.409 114.057 286.463 97.3658 288.338C80.6751 290.214 71.2983 292.757 71.2983 295.409Z" fill="#45413C"/>
<path d="M205.639 149.909C205.639 152.164 206.727 154.326 208.665 155.92C210.602 157.514 213.229 158.409 215.969 158.409C218.708 158.409 221.336 157.514 223.273 155.92C225.21 154.326 226.298 152.164 226.298 149.909C226.298 147.655 225.21 145.493 223.273 143.899C221.336 142.305 218.708 141.409 215.969 141.409C213.229 141.409 210.602 142.305 208.665 143.899C206.727 145.493 205.639 147.655 205.639 149.909ZM96.2983 149.909C96.2983 152.164 97.3866 154.326 99.3238 155.92C101.261 157.514 103.888 158.409 106.628 158.409C109.368 158.409 111.995 157.514 113.932 155.92C115.869 154.326 116.958 152.164 116.958 149.909C116.958 147.655 115.869 145.493 113.932 143.899C111.995 142.305 109.368 141.409 106.628 141.409C103.888 141.409 101.261 142.305 99.3238 143.899C97.3866 145.493 96.2983 147.655 96.2983 149.909Z" fill="#45413C" stroke="#45413C" stroke-linecap="round" stroke-linejoin="round"/>
<path d="M259.298 195.909C259.298 200.034 254.144 203.409 247.76 203.409C241.375 203.409 236.221 200.034 236.221 195.909C236.221 191.784 241.375 188.409 247.76 188.409C254.144 188.409 259.298 191.784 259.298 195.909ZM82.3753 195.909C82.3753 200.034 77.2214 203.409 70.8368 203.409C64.4522 203.409 59.2983 200.034 59.2983 195.909C59.2983 191.784 64.4522 188.409 70.8368 188.409C77.2214 188.409 82.3753 191.784 82.3753 195.909Z" fill="#FFCCDD"/>
<path d="M132.298 246.626C133.909 248.867 136.179 250.678 138.866 251.865C141.552 253.053 144.554 253.571 147.548 253.365C158.986 253.365 162.798 244.537 162.798 226.409C162.798 244.537 166.611 253.365 178.048 253.365C181.043 253.571 184.045 253.053 186.731 251.865C189.418 250.678 191.688 248.867 193.298 246.626" stroke="#45413C" stroke-linecap="round" stroke-linejoin="round"/>
<path d="M183.298 212.378C182.9 217.245 180.467 221.832 176.436 225.32C172.405 228.807 167.038 230.966 161.298 231.409C155.622 230.977 150.307 228.867 146.284 225.45C142.261 222.033 139.788 217.526 139.298 212.72C139.298 204.984 149.166 203.409 161.298 203.409C173.431 203.409 183.298 204.642 183.298 212.378Z" fill="#656769"/>
<path d="M161.258 213.809C170.462 213.809 178.293 214.743 181.603 218.409C182.679 216.555 183.258 214.531 183.298 212.476C183.298 204.943 173.449 203.409 161.258 203.409C149.067 203.409 139.298 204.943 139.298 212.476C139.347 214.523 139.896 216.542 140.913 218.409C144.142 214.743 152.054 213.809 161.258 213.809Z" fill="#87898C"/>
<path d="M183.298 212.378C182.9 217.245 180.467 221.832 176.436 225.32C172.405 228.807 167.038 230.966 161.298 231.409C155.622 230.977 150.307 228.867 146.284 225.45C142.261 222.033 139.788 217.526 139.298 212.72C139.298 204.984 149.166 203.409 161.298 203.409C173.431 203.409 183.298 204.642 183.298 212.378Z" stroke="#45413C" stroke-linecap="round" stroke-linejoin="round"/>
<path d="M112.996 63.6048C113.475 63.4316 113.909 63.1676 114.269 62.8301C114.628 62.4926 114.905 62.0893 115.08 61.647C115.256 61.2046 115.327 60.7333 115.288 60.2642C115.249 59.795 115.101 59.3388 114.855 58.9256C109.65 50.042 95.8949 28.6127 87.1958 28.4093C77.3814 28.4093 70.6154 61.5703 74.333 87.5431C74.4488 88.2177 74.7852 88.8446 75.2981 89.3419C75.8111 89.8392 76.4767 90.1837 77.2078 90.3302C77.9389 90.4768 78.7015 90.4186 79.3958 90.1633C80.0901 89.908 80.6837 89.4675 81.099 88.8994C88.761 77.7813 99.8593 68.9801 112.996 63.6048Z" fill="#FFA694"/>
<path d="M87.1489 43.2053C93.5538 43.2053 102.789 54.7638 109.492 64.1427C110.632 63.6098 111.8 63.1249 112.992 62.6897C113.472 62.521 113.907 62.2639 114.267 61.9351C114.627 61.6064 114.904 61.2136 115.08 60.7828C115.256 60.352 115.327 59.8929 115.288 59.436C115.249 58.9791 115.101 58.5347 114.854 58.1323C109.641 49.4799 95.8626 28.6085 87.1489 28.4104C78.4353 28.2122 72.2538 54.8299 73.4454 78.4093C74.637 59.6514 80.1482 42.875 87.1489 43.2053Z" fill="#FF866E"/>
<path d="M112.996 63.6048C113.475 63.4316 113.909 63.1676 114.269 62.8301C114.628 62.4926 114.905 62.0893 115.08 61.647C115.256 61.2046 115.327 60.7333 115.288 60.2642C115.249 59.795 115.101 59.3388 114.855 58.9256C109.65 50.042 95.8949 28.6127 87.1958 28.4093C77.3814 28.4093 70.6154 61.5703 74.333 87.5431C74.4488 88.2177 74.7852 88.8446 75.2981 89.3419C75.8111 89.8392 76.4767 90.1837 77.2078 90.3302C77.9389 90.4768 78.7015 90.4186 79.3958 90.1633C80.0901 89.908 80.6837 89.4675 81.099 88.8994C88.761 77.7813 99.8593 68.9801 112.996 63.6048Z" stroke="#45413C" stroke-linecap="round" stroke-linejoin="round"/>
<path d="M206.833 63.4864C206.312 63.32 205.838 63.0609 205.445 62.7262C205.051 62.3915 204.745 61.989 204.549 61.5458C204.353 61.1025 204.27 60.6286 204.307 60.156C204.343 59.6833 204.498 59.2227 204.76 58.805C210.34 50.1208 225.086 28.6137 234.491 28.4102C243.897 28.2067 252.266 61.5867 248.28 87.5715C248.136 88.2434 247.761 88.8639 247.203 89.3549C246.646 89.8458 245.929 90.1852 245.145 90.3303C244.361 90.4754 243.544 90.4197 242.797 90.1702C242.05 89.9208 241.406 89.4887 240.947 88.9284C232.782 77.7624 220.91 68.9084 206.833 63.4864Z" fill="#FFA694"/>
<path d="M234.454 43.0732C227.589 43.0732 217.772 54.6317 210.508 64.0106L206.836 62.5576C206.315 62.3957 205.841 62.1434 205.446 61.8175C205.052 61.4917 204.746 61.0999 204.55 60.6684C204.353 60.2368 204.27 59.7755 204.307 59.3154C204.343 58.8552 204.498 58.4068 204.761 58.0002C210.348 49.546 225.115 28.6085 234.454 28.4104C243.793 28.2122 250.418 54.8299 249.141 78.4093C247.864 59.5193 242.037 42.743 234.454 43.0732Z" fill="#FF866E"/>
<path d="M206.833 63.4864C206.312 63.32 205.838 63.0609 205.445 62.7262C205.051 62.3915 204.745 61.989 204.549 61.5458C204.353 61.1025 204.27 60.6286 204.307 60.156C204.343 59.6833 204.498 59.2227 204.76 58.805C210.34 50.1208 225.086 28.6137 234.491 28.4102C243.897 28.2067 252.266 61.5867 248.28 87.5715C248.136 88.2434 247.761 88.8639 247.203 89.3549C246.646 89.8458 245.929 90.1852 245.145 90.3303C244.361 90.4754 243.544 90.4197 242.797 90.1702C242.05 89.9208 241.406 89.4887 240.947 88.9284C232.782 77.7624 220.91 68.9084 206.833 63.4864Z" stroke="#45413C" stroke-linecap="round" stroke-linejoin="round"/>
</svg>
