<svg width="22" height="27" viewBox="0 0 22 27" fill="none" xmlns="http://www.w3.org/2000/svg">
<g clip-path="url(#clip0_57_219)">
<path d="M6.50532 0.9304L6.15922 1.67262L1.54993 1.67632C0.700095 1.677 0.0131013 2.4195 0.0126032 3.33785C0.0121051 4.2562 0.698294 4.99759 1.54813 4.99691L19.9853 4.98212C20.8351 4.98144 21.5221 4.23894 21.5226 3.32059C21.5231 2.40224 20.8369 1.66084 19.9871 1.66153L15.3778 1.66523L15.0325 0.923558C14.7735 0.358228 14.2408 0.00584299 13.6598 0.00630914L7.879 0.0109474C7.29804 0.0114136 6.7649 0.364654 6.50532 0.9304ZM19.9844 6.64241L1.54723 6.65721L2.55558 24.2451C2.63168 25.5577 3.63941 26.5791 4.85415 26.5781L16.6558 26.5686C17.8706 26.5676 18.8794 25.5447 18.957 24.232L19.9844 6.64241Z" fill="white"/>
</g>
<defs>
<clipPath id="clip0_57_219">
<rect width="21.5101" height="26.5646" fill="white" transform="matrix(0.999993 -0.000802356 -0.0005424 1.00001 0.0144043 0.0172577)"/>
</clipPath>
</defs>
</svg>
