<svg width="110" height="91" viewBox="0 0 110 91" fill="none" xmlns="http://www.w3.org/2000/svg">
<ellipse cx="55" cy="45.5" rx="54" ry="44.5" fill="#FF4D6D"/>
<path d="M24.9727 50.2695L51.4424 68.3916C52.541 69.1436 53.9912 69.5625 55.5 69.5625C57.0088 69.5625 58.459 69.1436 59.5576 68.3916L86.0273 50.2695C90.4805 47.2295 93 42.9648 93 38.5068V37.8838C93 30.375 85.6025 23.9727 75.5098 22.7373C68.8301 21.9209 62.0332 23.5215 57.2578 27.0234L55.5 28.3125L53.7422 27.0234C48.9668 23.5215 42.1699 21.9209 35.4902 22.7373C25.3975 23.9727 18 30.375 18 37.8838V38.5068C18 42.9648 20.5195 47.2295 24.9727 50.2695Z" fill="white"/>
</svg>
