<svg width="113" height="91" viewBox="0 0 113 91" fill="none" xmlns="http://www.w3.org/2000/svg">
<ellipse cx="55.5" cy="45.5" rx="54.5" ry="44.5" fill="#6A040F"/>
<path d="M67.5678 40.133C74.8087 40.0999 79.2343 33.9469 79.2151 30.0737C79.1991 26.846 76.395 22.9855 70.825 23.011C63.584 23.0441 59.1584 29.197 59.1776 33.0702C59.1936 36.2979 61.9978 40.1584 67.5678 40.133ZM46.4018 40.2296C51.9718 40.2042 54.7376 36.3183 54.7216 33.0906C54.7008 28.8946 50.2145 22.7824 42.9735 22.8154C37.4035 22.8409 34.6377 26.7268 34.6537 29.9545C34.1175 34.153 38.6039 40.2653 46.4018 40.2296ZM87.6037 36.8137C80.3627 36.8467 75.3785 42.6795 75.3993 46.8755C75.4137 49.7804 77.6561 52.6751 82.6691 52.6522C89.91 52.6191 94.8942 46.7864 94.8734 42.5904C94.859 39.6855 92.0597 36.7933 87.6037 36.8137ZM39.1945 47.0408C39.1737 42.8449 33.5749 37.0605 26.8909 37.091C21.8779 37.1139 19.6643 40.029 19.6787 42.9339C19.6995 47.1299 25.2983 52.9143 31.9823 52.8837C36.9953 52.8608 39.2089 49.9458 39.1945 47.0408ZM57.0152 46.3139C45.8752 46.3648 30.8875 56.762 30.9227 63.8629C30.9386 67.0906 34.8424 68.0411 39.2984 68.0208C45.9824 67.9902 50.9826 65.3852 57.1095 65.3572C62.6795 65.3317 67.7053 67.891 73.8323 67.863C78.2883 67.8426 83.298 67.1742 83.2804 63.6238C83.2453 56.5229 68.1551 46.263 57.0152 46.3139Z" fill="white"/>
</svg>
