<svg width="23" height="28" viewBox="0 0 23 28" fill="none" xmlns="http://www.w3.org/2000/svg">
<g clip-path="url(#clip0_57_217)">
<path d="M16.3708 1.02781L14.2762 3.60856L19.8946 10.5313L21.9892 7.95054C23.0711 6.61752 23.0723 4.45941 21.9918 3.12812L20.289 1.02467C19.2085 -0.306627 17.457 -0.305222 16.3751 1.02781L16.3708 1.02781ZM13.2982 4.81362L3.21045 17.2481C2.76038 17.8027 2.43133 18.4903 2.24928 19.2418L0.714847 25.6534C0.606483 26.1064 0.705689 26.5912 0.973643 26.9214C1.2416 27.2516 1.63508 27.3738 1.99843 27.2456L7.20211 25.3551C7.81202 25.1308 8.37013 24.7254 8.8202 24.1709L18.9166 11.7364L13.2982 4.81362Z" fill="#F1ECEC"/>
</g>
<defs>
<clipPath id="clip0_57_217">
<rect width="22.1428" height="27.2825" fill="white" transform="matrix(0.999993 -0.000802356 -0.0005424 1.00001 0.685547 0.0117798)"/>
</clipPath>
</defs>
</svg>
