<svg width="27" height="33" viewBox="0 0 27 33" fill="none" xmlns="http://www.w3.org/2000/svg">
<g clip-path="url(#clip0_57_215)">
<path d="M21.3842 13.707C21.3826 16.539 20.6448 19.1557 19.403 21.2792L25.6561 29.0916C26.2735 29.8623 26.2728 31.1148 25.6545 31.8866C25.0363 32.6583 24.033 32.6591 23.4156 31.8884L17.1625 24.076C15.4614 25.6322 13.3653 26.547 11.0967 26.5489C5.41768 26.5534 0.819272 20.8128 0.823117 13.7235C0.826962 6.63413 5.4316 0.886155 11.1106 0.881598C16.7896 0.877041 21.388 6.61763 21.3842 13.707ZM11.0988 22.6001C12.0335 22.5993 12.9591 22.3687 13.8228 21.9216C14.6866 21.4744 15.4716 20.8193 16.1329 19.9937C16.7943 19.1681 17.319 18.1883 17.6773 17.11C18.0356 16.0318 18.2203 14.8763 18.2209 13.7095C18.2215 12.5427 18.0381 11.3875 17.681 10.3099C17.3239 9.23221 16.8002 8.25318 16.1397 7.42867C15.4793 6.60417 14.695 5.95035 13.8318 5.50454C12.9685 5.05873 12.0431 4.82966 11.1085 4.83041C10.1738 4.83116 9.24817 5.06171 8.38442 5.50891C7.52067 5.95611 6.73571 6.61119 6.07436 7.43675C5.41302 8.26231 4.88823 9.24219 4.52997 10.3204C4.17171 11.3987 3.98699 12.5542 3.98635 13.7209C3.98572 14.8877 4.16919 16.0429 4.52628 17.1206C4.88337 18.1983 5.4071 19.1773 6.06755 20.0018C6.728 20.8263 7.51225 21.4801 8.37552 21.9259C9.23878 22.3717 10.1642 22.6008 11.0988 22.6001Z" fill="#FCFCFC"/>
</g>
<defs>
<clipPath id="clip0_57_215">
<rect width="25.3061" height="31.5903" fill="white" transform="matrix(0.999993 -0.000802356 -0.0005424 1.00001 0.830078 0.889847)"/>
</clipPath>
</defs>
</svg>
