<svg width="277" height="71" viewBox="0 0 277 71" fill="none" xmlns="http://www.w3.org/2000/svg">
<path d="M6.06703 30.6582C6.01656 23.7769 6.08032 18.4896 6.25832 14.7964L6.22414 14.7967L1.33138 14.1238C1.02899 13.2834 0.794283 12.3513 0.627264 11.3274C0.460245 10.3035 0.373226 9.31302 0.366207 8.35602C0.360859 7.62687 0.411973 6.82884 0.51955 5.96194C3.31481 4.93368 7.17153 4.15775 12.0897 3.63414C17.0078 3.11054 21.7455 2.82786 26.3026 2.7861C29.7888 2.75416 32.7871 3.00013 35.2975 3.52402C37.8079 4.04791 39.9133 5.27053 41.6136 7.19188C43.3365 9.09023 44.2121 11.9534 44.2401 15.7814C44.2542 17.6955 43.8604 19.9322 43.0589 22.4918C42.2799 25.0283 41.2727 27.51 40.0372 29.9367C38.8243 32.3405 37.5967 34.2887 36.3544 35.7813C34.525 38.0084 32.4838 39.326 30.2309 39.734C26.4984 40.3607 22.5473 40.6931 18.3775 40.7313C18.3036 43.0791 18.2818 44.7656 18.3121 45.7907L23.4022 45.4023C24.4628 47.1016 25.0587 49.1242 25.1899 51.4701C25.1907 51.5841 24.6816 52.0787 23.6626 52.9539C22.6436 53.8292 21.2938 54.6391 19.613 55.3837C17.955 56.1281 16.0437 56.5102 13.879 56.53C11.7372 56.5497 10.024 55.9843 8.73952 54.8339C7.47763 53.6605 6.83607 51.6269 6.81485 48.7331C6.39273 43.9972 6.15494 37.9835 6.10146 30.6921L6.06703 30.6582ZM27.7061 31.041C28.2802 28.5291 28.7506 25.8701 29.1174 23.0639C29.5068 20.2347 29.7166 17.7717 29.7468 15.675C29.6314 15.471 29.049 15.294 27.9997 15.1441C26.9504 14.9942 25.5941 14.9269 23.9307 14.9421C22.7687 14.9528 21.3221 15.0116 19.5911 15.1186C19.4365 22.0018 19.2036 27.5299 18.8924 31.7028L27.7061 31.041ZM46.8474 35.7193C46.8185 31.7773 47.4534 28.2509 48.7522 25.1399C50.0511 22.0289 52.0724 19.5607 54.8163 17.7354C57.5827 15.887 61.0394 14.9439 65.1864 14.9059C67.351 14.886 69.5176 15.1282 71.686 15.6325C73.8543 16.1139 75.6947 16.9402 77.2073 18.1113C78.6054 19.2151 79.6188 20.687 80.2476 22.527C80.8989 24.344 81.2328 26.369 81.2492 28.602C81.26 30.0831 81.1458 31.5995 80.9065 33.1512C80.6365 33.6095 80.1054 34.2182 79.3135 34.9774C78.5213 35.7139 77.5924 36.4402 76.5266 37.1564C75.4609 37.8726 74.4282 38.4289 73.4284 38.8255C72.4719 38.9026 71.481 38.9459 70.4557 38.9552C68.6556 38.9717 66.8322 38.9087 64.9854 38.7661C63.1386 38.6235 61.5195 38.4561 60.1281 38.2637C60.3246 40.1988 60.9294 41.8796 61.9425 43.3059C62.9555 44.7322 64.5558 45.4354 66.7432 45.4153C66.9483 45.4134 67.2785 45.3876 67.7339 45.3379C69.1228 45.1884 70.7379 44.809 72.5792 44.1997C74.4431 43.5673 76.2949 42.844 78.1347 42.0295C79.0069 42.8875 79.6512 43.7475 80.0677 44.6096C80.4842 45.4717 80.7781 46.7109 80.9495 48.3272C80.2492 49.154 79.1058 50.1671 77.5195 51.3666C75.956 52.5659 74.0385 53.6545 71.767 54.6323C69.4953 55.5874 67.1176 56.0764 64.634 56.0991C60.8972 56.1334 57.6892 55.2627 55.0101 53.487C52.3536 51.6884 50.3305 49.2459 48.9406 46.1595C47.5734 43.0502 46.8756 39.5701 46.8474 35.7193ZM68.8005 27.6565C68.479 27.3176 67.9416 27.0605 67.1884 26.8851C66.4349 26.6869 65.6481 26.5916 64.8278 26.5991C64.167 26.6051 63.4953 26.6683 62.8125 26.7885C62.1526 26.9084 61.7548 27.0374 61.6191 27.1754C60.8556 28.7091 60.3784 30.4454 60.1875 32.384L69.3066 31.4118L68.8005 27.6565ZM88.6205 36.3278C88.5932 32.6137 88.6254 29.2294 88.7169 26.1751L84.9867 25.5598C84.6821 24.4233 84.4697 23.4226 84.3494 22.5577C84.2292 21.6929 84.1654 20.7706 84.1582 19.7908L84.2216 19.1066C84.2876 18.787 84.3199 18.5246 84.3184 18.3196L89.2662 17.1804C89.3698 15.7667 89.6201 14.1693 90.0172 12.3882C90.4143 10.6072 90.8376 9.293 91.2871 8.44575C92.0123 7.89221 92.8865 7.47402 93.9098 7.1912C94.9332 6.90837 96.0373 6.76153 97.2221 6.75067C98.2247 6.74148 99.1938 6.83515 100.13 7.03166C101.088 7.20518 101.921 7.4482 102.63 7.76073C102.704 8.53482 102.745 9.42316 102.752 10.4257C102.764 12.0663 102.698 13.9241 102.554 15.9991L108.561 14.8502C109.415 16.3008 109.848 17.8805 109.861 19.5895C109.869 20.7743 109.729 21.8466 109.44 22.8064C109.173 23.7659 108.794 24.8517 108.302 26.064C106.8 26.3284 104.739 26.5068 102.119 26.5992C101.827 30.3162 101.161 35.7799 100.12 42.9902L99.9574 44.1539L100.026 44.2216L108.04 41.653C109.713 43.0277 110.743 45.1602 111.129 48.0507C111.13 48.2102 110.395 48.9689 108.924 50.3268C107.475 51.6618 105.65 52.909 103.448 54.0686C101.246 55.2053 98.8464 55.7856 96.2489 55.8094C91.7146 55.851 89.279 53.1046 88.9422 47.5704C88.7621 44.7692 88.6549 41.0216 88.6205 36.3278ZM116.697 42.8725C118.707 43.6516 120.318 44.2521 121.529 44.674C122.74 45.0959 124.064 45.4597 125.502 45.7656C126.963 46.0712 128.411 46.2175 129.846 46.2043C130.484 46.1985 130.94 46.1373 131.212 46.0209C131.28 45.9291 131.336 45.7919 131.38 45.6092C131.447 45.4035 131.48 45.1981 131.478 44.993C131.475 44.5373 131.21 44.1637 130.684 43.8723C129.86 43.4241 128.397 42.7197 126.293 41.7591C123.412 40.4183 121.125 39.2201 119.431 38.1647C117.759 37.109 116.336 35.6978 115.161 33.9311C114.009 32.1643 113.423 29.9365 113.403 27.2478C113.375 23.397 114.503 20.2989 116.787 17.9537C119.071 15.5857 122.708 14.3788 127.698 14.333C133.645 14.2786 138.277 15.0109 141.592 16.53C141.756 17.1894 141.842 18.0203 141.849 19.0229C141.863 20.9369 141.582 22.8992 141.004 24.9098C140.426 26.8976 139.662 28.3744 138.712 29.3402C137.41 28.9191 135.571 28.241 133.194 27.3057C131.457 26.638 130.075 26.1265 129.047 25.7713C128.042 25.3932 127.117 25.1282 126.273 24.9764C125.818 25.0945 125.455 25.3713 125.185 25.8067C124.914 26.2194 124.781 26.7105 124.785 27.2802C124.789 27.7815 124.94 28.2017 125.239 28.5407C125.538 28.8798 125.87 29.1502 126.236 29.3519C126.625 29.5307 127.174 29.7763 127.882 30.0888C128.248 30.245 128.591 30.39 128.911 30.5238C129.231 30.6348 129.528 30.746 129.802 30.8574C131.585 31.5931 132.991 32.1954 134.02 32.6645C135.048 33.1336 136.044 33.6942 137.006 34.3462C138.769 35.5378 140.158 36.9037 141.171 38.444C142.185 39.9842 142.699 41.6772 142.713 43.5228C142.731 46.0748 142.018 48.2917 140.574 50.1735C139.152 52.0324 137.316 53.3936 135.067 54.2574C133.885 54.7012 132.588 55.0207 131.177 55.2159C129.789 55.4337 128.16 55.5512 126.292 55.5683C124.082 55.5886 121.8 55.1879 119.447 54.3663C117.116 53.5218 115.329 52.1025 114.084 50.1087C114.096 48.7185 114.27 47.5092 114.604 46.4807C114.961 45.4292 115.658 44.2265 116.697 42.8725ZM146.303 43.695C147.696 44.138 148.963 44.491 150.105 44.754C152.25 35.8472 154.691 25.3313 157.427 13.2061L149.184 12.3929C148.649 10.9622 148.375 9.33544 148.362 7.51257C148.352 6.12263 148.501 4.76541 148.81 3.44091C152.11 2.77263 155.912 2.28204 160.216 1.96915C164.543 1.63326 168.256 1.45112 171.355 1.42273C173.588 1.40226 175.263 1.39831 176.379 1.41087L178.542 2.62157C182.447 13.0908 186.436 27.2621 190.509 45.1357C190.556 45.3176 190.638 45.6814 190.756 46.2272C190.897 46.7728 191.003 47.296 191.075 47.7966C191.147 48.2745 191.185 48.7299 191.188 49.1628C191.202 51.0769 190.53 52.6326 189.171 53.83C187.263 54.5994 184.953 54.9966 182.241 55.0214C180.965 55.0331 179.677 54.9082 178.376 54.6467C177.075 54.3851 176.195 53.9716 175.735 53.4062L176.081 44.5843L175.193 40.0122C173.712 40.1169 171.97 40.1784 169.964 40.1968C167.823 40.2164 165.817 40.1664 163.948 40.0469L163.551 41.8963C162.691 45.8691 161.983 48.6899 161.425 50.3585C160.891 52.0268 160.08 53.2648 158.992 54.0723C157.927 54.8796 156.323 55.2931 154.181 55.3127C152.791 55.3255 151.389 55.156 149.973 54.8044C148.558 54.4756 147.279 54.0201 146.135 53.4382C144.991 52.8562 144.132 52.226 143.558 51.5476C143.546 49.907 143.785 48.3439 144.275 46.8582C144.766 45.3726 145.442 44.3182 146.303 43.695ZM170.041 13.3981L168.469 13.4125L166.132 30.2852L173.788 30.2151L170.041 13.3981ZM193.813 24.9044C193.323 23.4277 192.995 22.1091 192.827 20.9484C192.681 19.7876 192.602 18.2844 192.589 16.4387C192.951 16.1164 193.541 15.7464 194.358 15.3287C195.175 14.8883 196.152 14.5033 197.289 14.1739C198.426 13.8444 199.598 13.6742 200.806 13.6631C203.563 13.6379 205.515 14.2124 206.663 15.3869C207.834 16.5611 208.428 18.3331 208.445 20.7028C208.455 22.0244 208.275 23.8148 207.904 26.0742C207.292 29.703 206.987 31.6085 206.989 31.7908C206.989 31.9047 207.07 32.0179 207.23 32.1304C207.391 32.2201 207.562 32.2641 207.744 32.2624C207.949 32.2605 208.085 32.1795 208.152 32.0194L208.484 30.6491L209.215 27.737C210.3 23.5114 211.939 20.0897 214.13 17.4719C216.321 14.8312 219.091 13.4956 222.441 13.4649C224.947 13.4419 226.99 13.9701 228.57 15.0494C230.173 16.1057 231.334 17.5193 232.054 19.2901C232.773 21.0381 233.14 22.9717 233.156 25.0908C233.177 27.9618 232.927 31.1885 232.407 34.7709C231.886 38.3305 231.181 41.6639 230.292 44.7711C229.426 47.8098 227.963 50.2273 225.902 52.0236C223.864 53.7969 221.307 54.6976 218.231 54.7258C217.115 54.736 215.803 54.5658 214.297 54.215C212.813 53.8868 210.929 53.3002 208.644 52.4552L207.324 58.9275L207.393 58.9952L213.918 58.4911C214.355 59.1023 214.68 59.8399 214.891 60.7039C215.126 61.5905 215.327 62.6027 215.495 63.7405L215.602 64.4231C215.603 64.5143 215.105 64.9404 214.108 65.7015C213.111 66.4854 211.783 67.204 210.124 67.8573C208.466 68.5333 206.554 68.8812 204.39 68.9011C199.491 68.946 197.022 66.3594 196.984 61.1415L196.967 58.7831C196.916 51.8335 196.916 45.6467 196.967 40.2228C197.041 34.7759 197.233 29.8635 197.543 25.4855L193.813 24.9044ZM218.028 45.6013C218.825 42.5177 219.201 37.8543 219.156 31.6109C219.148 30.54 219.084 29.6747 218.966 29.0149C218.437 28.3589 217.682 28.0354 216.703 28.0444C216.386 28.3208 215.305 30.1309 213.461 33.4747C211.617 36.7958 210.257 39.349 209.381 41.1345L209.393 42.7751C210.653 43.6294 212.105 44.3339 213.75 44.8886C215.394 45.4204 216.65 45.6823 217.516 45.6744C217.721 45.6725 217.891 45.6482 218.028 45.6013ZM236.536 24.5129C236.046 23.0362 235.718 21.7176 235.55 20.557C235.404 19.3961 235.325 17.8929 235.311 16.0472C235.674 15.7249 236.263 15.3549 237.081 14.9372C237.898 14.4968 238.875 14.1118 240.012 13.7824C241.149 13.453 242.321 13.2827 243.529 13.2716C246.286 13.2464 248.238 13.8209 249.386 14.9954C250.557 16.1696 251.151 17.9416 251.168 20.3113C251.178 21.6329 250.997 23.4233 250.627 25.6827C250.015 29.3115 249.71 31.217 249.711 31.3993C249.712 31.5132 249.793 31.6264 249.953 31.7389C250.113 31.8286 250.285 31.8726 250.467 31.8709C250.672 31.869 250.808 31.788 250.875 31.6279L251.207 30.2576L251.938 27.3455C253.023 23.1199 254.662 19.6982 256.853 17.0804C259.044 14.4397 261.814 13.1041 265.163 13.0734C267.67 13.0504 269.713 13.5786 271.293 14.6579C272.896 15.7142 274.057 17.1278 274.777 18.8986C275.496 20.6467 275.863 22.5802 275.879 24.6993C275.9 27.5703 275.65 30.797 275.129 34.3794C274.609 37.939 273.904 41.2724 273.015 44.3797C272.149 47.4183 270.685 49.8358 268.625 51.6321C266.587 53.4054 264.03 54.3061 260.954 54.3343C259.838 54.3446 258.526 54.1743 257.02 53.8235C255.536 53.4953 253.652 52.9087 251.367 52.0637L250.047 58.536L250.116 58.6037L256.641 58.0996C257.078 58.7108 257.403 59.4485 257.614 60.3124C257.849 61.199 258.05 62.2112 258.217 63.349L258.325 64.0317C258.326 64.1228 257.827 64.5489 256.83 65.3101C255.834 66.094 254.506 66.8125 252.847 67.4658C251.189 68.1418 249.277 68.4897 247.112 68.5096C242.214 68.5545 239.745 65.9679 239.707 60.75L239.689 58.3916C239.638 51.442 239.639 45.2552 239.69 39.8313C239.764 34.3845 239.956 29.472 240.266 25.094L236.536 24.5129ZM260.751 45.2098C261.548 42.1262 261.924 37.4628 261.878 31.2194C261.871 30.1485 261.807 29.2832 261.688 28.6234C261.16 27.9674 260.405 27.6439 259.425 27.6529C259.108 27.9293 258.028 29.7394 256.184 33.0832C254.34 36.4043 252.98 38.9576 252.104 40.743L252.116 42.3836C253.376 43.2379 254.828 43.9424 256.473 44.4971C258.117 45.0289 259.372 45.2908 260.238 45.2829C260.443 45.281 260.614 45.2567 260.751 45.2098Z" fill="black"/>
</svg>
